#!OML:ASF I:\Actors\actors\Patient Classification 1\Patient 1\Session 1\Subject1.ASF
:FULLY-SPECIFIED
:DEGREES
1577
root -0.0829046 17.5371 8.36956 8.82546 1.76695 -7.38536
lowerback -2.04812 1.29859 5.3521
upperback -9.86091 1.98062 0.584544
thorax -9.12714 0.577951 -2.47864
lowerneck -9.19859 -5.12474 -4.53922
upperneck 32.6462 -8.87647 7.01694
head 12.9481 -3.65257 2.28037
rclavicle 4.37326e-015 -7.15625e-015
rhumerus -48.6011 -1.00894 -86.9422
rradius 67.5413
rwrist -19.757
rhand 202.21 502.169
rfingers 7.12502
rthumb 46.5882 -60.6765
lclavicle 4.37326e-015 -7.15625e-015
lhumerus -48.0178 -5.95547 90.5577
lradius 55.4412
lwrist 15.9705
lhand -8.43948 -14.2418
lfingers 7.12502
lthumb 17.4859 -345.008
rfemur -4.27796 21.7612 24.2112
rtibia 4.17697
rfoot -13.4486 -26.6953
rtoes 4.49948
lfemur -178.462 221.506 -190.554
ltibia -3.1708
lfoot 164.102 -130.446
ltoes 6.46015
1578
root -0.0854078 17.5371 8.36579 8.81594 1.81079 -7.43352
lowerback -2.05426 1.27743 5.36328
upperback -9.89195 1.96224 0.702963
thorax -9.16396 0.572396 -2.35826
lowerneck -9.26599 -5.06783 -4.47146
upperneck 32.8129 -8.71823 6.71535
head 12.9999 -3.60581 2.17485
rclavicle 7.7526e-015 -3.65764e-014
rhumerus -48.3926 0.260968 -87.2657
rradius 73.5817
rwrist -22.5611
rhand 203.95 501.951
rfingers 7.12502
rthumb 48.195 -60.1701
lclavicle 7.7526e-015 -3.65764e-014
lhumerus -48.1324 -6.87639 91.4565
lradius 59.4479
lwrist 17.8091
lhand -7.7605 -15.1178
lfingers 7.12502
lthumb 18.1393 -345.944
rfemur -4.29621 21.8757 24.2832
rtibia 4.2187
rfoot -13.5102 -26.8262
rtoes 4.46024
lfemur -178.549 221.304 -190.4
ltibia -3.18783
lfoot 164.348 -130.629
ltoes 6.08972
1579
root -0.0866073 17.5364 8.36284 8.84111 1.80529 -7.45785
lowerback -2.1154 1.25113 5.37158
upperback -9.94793 1.93312 0.810995
thorax -9.19691 0.560985 -2.2455
lowerneck -9.23555 -4.97271 -4.4047
upperneck 32.9668 -8.51993 6.46169
head 13.0256 -3.53891 2.09625
rclavicle -1.35174e-014 1.82882e-014
rhumerus -47.8334 1.50389 -87.569
rradius 79.588
rwrist -25.0805
rhand 207.493 500.643
rfingers 7.12502
rthumb 51.4395 -59.7903
lclavicle -1.35174e-014 1.82882e-014
lhumerus -47.9653 -7.51341 92.1383
lradius 62.8967
lwrist 19.2598
lhand -7.04914 -16.0423
lfingers 7.12502
lthumb 18.8236 -346.933
rfemur -4.36315 21.9309 24.3003
rtibia 4.28133
rfoot -13.5777 -26.8475
rtoes 4.87179
lfemur -178.632 221.274 -190.315
ltibia -3.16732
lfoot 164.365 -130.634
ltoes 6.11355
1580
root -0.0856486 17.5344 8.36034 8.89872 1.67104 -7.45806
lowerback -2.21327 1.23003 5.4005
upperback -10.0255 1.90913 0.914135
thorax -9.23167 0.549655 -2.14886
lowerneck -9.13548 -4.83094 -4.39541
upperneck 33.1001 -8.26372 6.2802
head 13.031 -3.44725 2.06553
rclavicle 3.97569e-015 -6.36111e-015
rhumerus -46.8863 2.81491 -87.8622
rradius 85.5677
rwrist -27.4053
rhand 209.629 501.136
rfingers 7.12502
rthumb 53.373 -58.1174
lclavicle 3.97569e-015 -6.36111e-015
lhumerus -47.542 -7.92501 92.6836
lradius 65.7794
lwrist 20.0387
lhand -6.55445 -16.6451
lfingers 7.12502
lthumb 19.2993 -347.583
rfemur -4.4971 21.8357 24.2437
rtibia 4.36282
rfoot -13.5612 -26.6172
rtoes 5.03839
lfemur -178.635 221.332 -190.346
ltibia -3.15992
lfoot 164.276 -130.46
ltoes 6.35939
1581
root -0.0861242 17.5287 8.35588 9.09185 1.47528 -7.43502
lowerback -2.18633 0.917938 4.70346
upperback -10.3269 1.52939 1.57439
thorax -9.64201 0.44031 -1.0402
lowerneck -8.9422 -4.45361 -4.5731
upperneck 33.4463 -7.52103 5.74898
head 13.0636 -3.20771 2.00499
rclavicle 6.75868e-015 -3.06128e-014
rhumerus -45.8013 5.27484 -87.9506
rradius 91.5127
rwrist -29.861
rhand 211.624 501.196
rfingers 7.12502
rthumb 55.1604 -56.8264
lclavicle 6.75868e-015 -3.06128e-014
lhumerus -47.2039 -7.05828 93.3587
lradius 68.1492
lwrist 20.0896
lhand -6.42261 -17.0958
lfingers 7.12502
lthumb 19.4261 -348.046
rfemur -4.83161 21.6752 24.0907
rtibia 4.47684
rfoot -13.4078 -26.2934
rtoes 4.46198
lfemur -178.811 221.314 -190.284
ltibia -3.15323
lfoot 164.206 -130.297
ltoes 6.45014
1582
root -0.0894087 17.5189 8.34778 9.46554 1.26978 -7.44892
lowerback -2.82508 1.36272 5.65626
upperback -10.3031 2.06155 0.909688
thorax -9.16865 0.601269 -2.28955
lowerneck -9.1047 -4.67036 -4.43617
upperneck 33.4767 -8.05571 6.3011
head 13.1744 -3.35204 2.1179
rclavicle -1.82882e-014 -4.09496e-014
rhumerus -43.7138 5.11444 -88.3693
rradius 97.2084
rwrist -32.03
rhand 215.013 500.083
rfingers 7.12502
rthumb 58.1488 -55.5044
lclavicle -1.82882e-014 -4.09496e-014
lhumerus -45.8181 -8.99028 93.5066
lradius 69.6238
lwrist 20.1287
lhand -6.30697 -17.6673
lfingers 7.12502
lthumb 19.5372 -348.629
rfemur -5.44317 21.6094 23.9026
rtibia 4.67921
rfoot -13.275 -26.0422
rtoes 3.84733
lfemur -179.315 221.186 -189.921
ltibia -3.14873
lfoot 164.04 -130.197
ltoes 6.63978
1583
root -0.0829572 17.5299 8.3509 9.00818 1.47757 -7.34531
lowerback -2.52303 1.23886 5.8642
upperback -10.2326 1.91907 0.891606
thorax -9.27627 0.510215 -2.4247
lowerneck -8.94544 -4.52854 -4.17146
upperneck 33.4664 -7.83025 6.07477
head 13.0937 -3.25145 2.01917
rclavicle -8.84592e-015 3.18055e-015
rhumerus -41.484 6.81325 -88.9335
rradius 101.932
rwrist -31.9084
rhand 216.013 505.515
rfingers 7.12502
rthumb 59.0164 -49.2579
lclavicle -8.84592e-015 3.18055e-015
lhumerus -44.6802 -9.47992 93.8406
lradius 70.6004
lwrist 19.7853
lhand -6.50687 -17.9682
lfingers 7.12502
lthumb 19.345 -348.91
rfemur -4.72368 21.6222 24.0161
rtibia 4.42879
rfoot -13.3314 -26.3162
rtoes 3.885
lfemur -178.707 221.182 -190.468
ltibia -3.18136
lfoot 164.317 -130.432
ltoes 6.34133
1584
root -0.0822991 17.5515 8.37641 8.12766 2.79505 -7.08049
lowerback -2.27296 0.702838 5.90874
upperback -9.98078 1.20861 0.88809
thorax -9.20164 0.162708 -2.42032
lowerneck -8.92592 -4.37023 -4.09079
upperneck 33.6146 -7.59588 5.98864
head 13.1285 -3.14632 2.00788
rclavicle -7.15625e-015 3.37934e-014
rhumerus -38.7395 8.76737 -89.4273
rradius 107.066
rwrist -35.8874
rhand 213.985 506.487
rfingers 7.12502
rthumb 57.2497 -49.8896
lclavicle -7.15625e-015 3.37934e-014
lhumerus -43.4545 -9.97494 94.1773
lradius 71.0847
lwrist 19.1972
lhand -7.24972 -17.9907
lfingers 7.12502
lthumb 18.6306 -348.863
rfemur -2.79506 22.36 24.4746
rtibia 3.45454
rfoot -13.956 -28.2872
rtoes 5.74912
lfemur -177.992 220.939 -191.098
ltibia -3.20179
lfoot 165.996 -131.851
ltoes 4.17758
1585
root -0.0893747 17.554 8.3747 8.05923 2.17431 -7.17899
lowerback -2.26912 0.823101 5.97296
upperback -10.0178 1.37986 0.987201
thorax -9.23282 0.244678 -2.35975
lowerneck -8.89459 -4.23841 -3.9573
upperneck 33.805 -7.39579 5.83762
head 13.1765 -3.05808 1.95743
rclavicle -5.06901e-015 1.78906e-014
rhumerus -35.2993 10.2422 -89.2043
rradius 111.285
rwrist -36.5014
rhand 221.17 505.978
rfingers 7.12502
rthumb 63.3577 -43.7164
lclavicle -5.06901e-015 1.78906e-014
lhumerus -42.2505 -10.537 94.4584
lradius 71.1552
lwrist 18.496
lhand -8.46035 -17.9545
lfingers 7.12502
lthumb 17.4659 -348.719
rfemur -2.85534 22.5466 24.5913
rtibia 3.6478
rfoot -13.8077 -27.8852
rtoes 5.57345
lfemur -177.361 221.134 -191.373
ltibia -3.47729
lfoot 165.254 -131.151
ltoes 5.04262
1586
root -0.087965 17.5543 8.37444 8.0483 1.92326 -7.17568
lowerback -2.42853 0.84378 6.13669
upperback -10.0782 1.40354 1.00866
thorax -9.20531 0.243396 -2.42648
lowerneck -8.73522 -4.13143 -3.8218
upperneck 33.9499 -7.23236 5.68718
head 13.1803 -2.98961 1.90334
rclavicle 7.65321e-015 -1.98785e-014
rhumerus -32.0397 12.7993 -89.5688
rradius 115.793
rwrist -40.8505
rhand 215.744 507.117
rfingers 7.12502
rthumb 58.7834 -47.8803
lclavicle 7.65321e-015 -1.98785e-014
lhumerus -41.1992 -11.2335 94.7415
lradius 70.9977
lwrist 17.8697
lhand -10.067 -17.7418
lfingers 7.12502
lthumb 15.9191 -348.376
rfemur -2.89982 22.5437 24.558
rtibia 3.71537
rfoot -13.7291 -27.6639
rtoes 5.37902
lfemur -177.132 221.203 -191.545
ltibia -3.56676
lfoot 164.988 -130.873
ltoes 5.36256
1587
root -0.0844103 17.5536 8.37632 8.05481 1.81365 -7.0576
lowerback -2.59547 0.809661 6.24863
upperback -10.153 1.35042 1.00953
thorax -9.19634 0.206665 -2.48234
lowerneck -8.58982 -3.97247 -3.6516
upperneck 34.09 -6.97893 5.48455
head 13.1759 -2.88284 1.83478
rclavicle -7.05686e-015 3.57812e-015
rhumerus -28.6765 14.7015 -89.5107
rradius 119.563
rwrist -42.1463
rhand 218.034 507.009
rfingers 7.12502
rthumb 60.7463 -45.9628
lclavicle -7.05686e-015 3.57812e-015
lhumerus -40.325 -11.8768 95.0472
lradius 70.7817
lwrist 17.3497
lhand -11.7274 -17.1804
lfingers 7.12502
lthumb 14.3197 -347.694
rfemur -2.90949 22.5027 24.3888
rtibia 3.70179
rfoot -13.7063 -27.5434
rtoes 5.28026
lfemur -177.095 221.105 -191.729
ltibia -3.55166
lfoot 164.923 -130.896
ltoes 5.50229
